; OM File Header - Saved 2024/09/26 11:31:20
; (7.03 :patc (om-make-point 118 10) (om-make-point -8 -8) (om-make-point 1368 829) "" 183 0 "2024/09/26 10:25:58" "2024/09/26 11:31:20")
; End File Header
(in-package :om)(load-lib-for (quote nil))(setf *om-current-persistent* (om-load-patch1 "Beat2" (quote ((let ((box (om-load-editor-box1 "CHORD-SEQ 2" (quote chord-seq) (quote ((om-load-inputfun (quote input-funbox) "object" "self" nil) (om-load-inputfun (quote input-funbox) "pitches (mc): list or list of lists" "lmidic" (list 6000)) (om-load-inputfun (quote input-funbox) "onsets (ms): list" "lonset" (list 0)) (om-load-inputfun (quote input-funbox) "durations (ms): list or list of lists" "ldur" (list 1000)) (om-load-inputfun (quote input-funbox) "velocities (0-127): list or list of lists" "lvel" (list 100)) (om-load-inputfun (quote input-funbox) "offsets (ms): list or list of lists" "loffset" (list 0)) (om-load-inputfun (quote input-funbox) "MIDI channels (1-16): list or list of lists" "lchan" (list 1)) (om-load-inputfun (quote input-funbox) "relative chords duration (0-100)" "legato" 0))) (om-make-point 246 357) (om-make-point 130 70) (let ((newobj (when (find-class (quote chord-seq) nil) (make-instance (quote chord-seq) :lmidic (quote ((4000) (4000) (4500) (5000) (4000) (4000) (4500) (5000) (4500) (4500) (5000) (5500) (4500) (4500) (5000) (5000))) :lonset (quote (0 600 800 1000 1200 1400 1600 1800 2000 2200 2400 2600 2800 3000 3200 3400 4200)) :ldur (quote ((800) (800) (800) (800) (800) (800) (800) (800) (800) (800) (800) (800) (800) (800) (800) (800))) :lvel (quote ((100) (100) (100) (100) (100) (100) (100) (100) (100) (100) (100) (100) (100) (100) (100) (100))) :loffset (quote ((0) (0) (0) (0) (0) (0) (0) (0) (0) (0) (0) (0) (0) (0) (0) (0))) :lchan (quote ((1) (1) (1) (1) (1) (1) (1) (1) (1) (1) (1) (1) (1) (1) (1) (1))) :legato 0)))) (load-port-info newobj (quote ((0) (0) (0) (0) (0) (0) (0) (0) (0) (0) (0) (0) (0) (0) (0) (0)))) (init-mus-color newobj (quote nil)) (set-extra-pairs newobj (quote nil)) (set-patch-pairs newobj (quote ((nil (om-load-patch-abs1 "patch" (quote nil) (quote nil) 7.03 nil "" (om-make-point 200 200) (om-make-point 400 500)))))) (set-name newobj nil) (set-tonalite newobj nil) newobj) nil nil (pairlis (quote (approx fontsize staff cmnpref deltapict outport inport player zoom notechancolor? grillestep mode winsize winpos score-mode obj-mode cursor-mode show-stems scale onset measure)) (list 2 24 (quote g) (let ((newobj (make-instance (quote edition-values)))) (setf (paper-size newobj) (om-make-point 600 800)) (setf (top-margin newobj) 2) (setf (left-margin newobj) 1) (setf (right-margin newobj) 1) (setf (bottom-margin newobj) 1) (setf (orientation newobj) nil) (setf (scale newobj) nil) (setf (system-space newobj) (quote (1))) (setf (system-color newobj) (quote nil)) (setf (line-space newobj) 1) (setf (title newobj) nil) (setf (show-title? newobj) nil) (setf (show-page? newobj) nil) (setf (sheet-id newobj) nil) (setf (page-mode newobj) nil) newobj) (om-make-point 0 0) nil nil (quote :midi-player) 1 nil 1000 0 (om-make-point 370 280) (om-make-point 400 20) 0 1 (quote :normal) (quote t) nil 0 1)) t nil nil nil (quote nil)))) (when (fboundp (quote set-active)) (set-active box nil)) box) (let ((box (om-load-boxcall (quote bastype) "list 2" (quote list) (quote nil) (om-make-point 369 99) (om-make-point 38 28) (list 800) "(800)" nil))) (when (fboundp (quote set-active)) (set-active box nil)) box) (let ((box (om-load-editor-box1 "CHORD-SEQ" (quote chord-seq) (quote ((om-load-inputfun (quote input-funbox) "object" "self" nil) (om-load-inputfun (quote input-funbox) "pitches (mc): list or list of lists" "lmidic" (list 6000)) (om-load-inputfun (quote input-funbox) "onsets (ms): list" "lonset" (list 0)) (om-load-inputfun (quote input-funbox) "durations (ms): list or list of lists" "ldur" (list 1000)) (om-load-inputfun (quote input-funbox) "velocities (0-127): list or list of lists" "lvel" (list 100)) (om-load-inputfun (quote input-funbox) "offsets (ms): list or list of lists" "loffset" (list 0)) (om-load-inputfun (quote input-funbox) "MIDI channels (1-16): list or list of lists" "lchan" (list 1)) (om-load-inputfun (quote input-funbox) "relative chords duration (0-100)" "legato" 0))) (om-make-point 193 139) (om-make-point 130 70) (let ((newobj (when (find-class (quote chord-seq) nil) (make-instance (quote chord-seq) :lmidic (quote ((4000) (4000) (4500) (5000) (4000) (4000) (4500) (5000))) :lonset (quote (0 1000 2000 3000 4000 5000 6000 7000 7800)) :ldur (quote ((800) (800) (800) (800) (800) (800) (800) (800))) :lvel (quote ((100) (100) (100) (100) (100) (100) (100) (100))) :loffset (quote ((0) (0) (0) (0) (0) (0) (0) (0))) :lchan (quote ((1) (1) (1) (1) (1) (1) (1) (1))) :legato 0)))) (load-port-info newobj (quote ((0) (0) (0) (0) (0) (0) (0) (0)))) (init-mus-color newobj (quote nil)) (set-extra-pairs newobj (quote nil)) (set-patch-pairs newobj (quote nil)) (set-name newobj nil) (set-tonalite newobj nil) newobj) nil nil (pairlis (quote (approx fontsize staff cmnpref deltapict outport inport player zoom notechancolor? grillestep mode winsize winpos score-mode obj-mode cursor-mode show-stems scale onset measure)) (list 2 24 (quote g) (let ((newobj (make-instance (quote edition-values)))) (setf (paper-size newobj) (om-make-point 600 800)) (setf (top-margin newobj) 2) (setf (left-margin newobj) 1) (setf (right-margin newobj) 1) (setf (bottom-margin newobj) 1) (setf (orientation newobj) nil) (setf (scale newobj) nil) (setf (system-space newobj) (quote (1))) (setf (system-color newobj) (quote nil)) (setf (line-space newobj) 1) (setf (title newobj) nil) (setf (show-title? newobj) nil) (setf (show-page? newobj) nil) (setf (sheet-id newobj) nil) (setf (page-mode newobj) nil) newobj) (om-make-point 0 0) nil nil (quote :midi-player) 1 nil 1000 0 (om-make-point 370 280) (om-make-point 400 20) 0 1 (quote :normal) (quote t) nil 0 1)) t nil nil t (quote nil)))) (when (fboundp (quote set-active)) (set-active box nil)) box) (let ((box (om-load-boxcall (quote lispfun) "APPEND" (quote append) (quote ((om-load-inputfun (quote input-funbox) "add-input" "add-input" nil) (om-load-inputfun (quote input-funbox) "add-input" "add-input" nil))) (om-make-point 216 273) nil nil nil nil 1))) (when (fboundp (quote set-active)) (set-active box nil)) box) (let ((box (om-load-boxcall (quote bastype) "list" (quote list) (quote nil) (om-make-point 36 39) (om-make-point 240 28) (list 4000 4000 4500 5000 4000 4000 4500 5000) "(4000 4000 4500 5000 4000 4000 4500 5000)" nil))) (when (fboundp (quote set-active)) (set-active box nil)) box) (let ((box (om-load-boxwithed1 (quote box-with-win) "OMLOOP 2" (quote omloop) (quote ((om-load-inputfun (quote input-funbox) "" "input" nil))) (om-make-point 108 152) nil nil nil (list (let ((box (om-load-boxcall (quote genfun) "OM- 2" (quote om-) (quote ((om-load-inputfun (quote input-funbox) "number or list" "ARG1" 0) (om-load-inputfun (quote input-funbox) "number or list" "ARG2" 1))) (om-make-point 262 152) nil nil nil nil 1))) (when (fboundp (quote set-active)) (set-active box nil)) box) (let ((box (om-load-boxcall (quote lispfun) "LENGTH" (quote length) (quote ((om-load-inputfun (quote input-funbox) "SEQUENCE" "SEQUENCE" nil))) (om-make-point 172 97) nil nil nil nil 1))) (when (fboundp (quote set-active)) (set-active box nil)) box) (let ((box (om-load-boxcall (quote genfun) "OMIF" (quote omif) (quote ((om-load-inputfun (quote input-funbox) "IF" "TEST" nil) (om-load-inputfun (quote input-funbox) "THEN" "ACTION" nil) (om-load-inputfun (quote input-funbox) "ELSE" "ELSE" nil))) (om-make-point 365 284) (om-make-point 50 56) nil nil nil 1))) (when (fboundp (quote set-active)) (set-active box nil)) box) (let ((box (om-load-boxcall (quote genfun) "OM=" (quote om=) (quote ((om-load-inputfun (quote input-funbox) "a number" "A" 0) (om-load-inputfun (quote input-funbox) "a number" "B" 0))) (om-make-point 286 282) nil nil nil nil 1))) (when (fboundp (quote set-active)) (set-active box nil)) box) (let ((box (om-load-boxcall (quote genfun) "collect" (quote listing) (quote ((om-load-inputfun (quote input-funbox) "anything" "DATA" nil))) (om-make-point 321 379) nil nil nil nil 3))) (when (fboundp (quote set-active)) (set-active box nil)) box) (let ((box (om-load-boxcall (quote genfun) "OM+" (quote om+) (quote ((om-load-inputfun (quote input-funbox) "number or list" "ARG1" 0) (om-load-inputfun (quote input-funbox) "number or list" "ARG2" 1))) (om-make-point 205 53) nil nil nil nil 1))) (when (fboundp (quote set-active)) (set-active box nil)) box) (let ((box (om-load-boxcall (quote lispfun) "NTH" (quote nth) (quote ((om-load-inputfun (quote input-funbox) "ORIG-N" "ORIG-N" nil) (om-load-inputfun (quote input-funbox) "ORIG-LIST" "ORIG-LIST" nil))) (om-make-point 161 265) nil nil nil nil 1))) (when (fboundp (quote set-active)) (set-active box nil)) box) (let ((box (om-load-boxcall (quote genfun) "FORLOOP" (quote forloop) (quote ((om-load-inputfun (quote input-funbox) "low value" "FROM" 0) (om-load-inputfun (quote input-funbox) "high value" "TO" 10))) (om-make-point 29 219) nil nil nil nil 1))) (when (fboundp (quote set-active)) (set-active box nil)) box) (let ((box (om-load-boxin "input" 0 (om-make-point 5 45) "" nil (list (list 6000) (list 5100) (list 6300) (list 6600) (list 5800) (list 7000)) nil))) (when (fboundp (quote set-active)) (set-active box nil)) box) (let ((box (om-load-seqbox "finally" (quote finaldo) (quote ((om-load-inputfun (quote input-funbox) "value to return" "VAL" nil))) (om-make-point 369 448) nil nil nil 0))) (when (fboundp (quote set-active)) (set-active box nil)) box) (let ((box (om-load-seqbox "eachTime" (quote loopdo) (quote ((om-load-inputfun (quote input-funbox) "operations to do" "OP" nil))) (om-make-point 294 435) nil nil nil 0))) (when (fboundp (quote set-active)) (set-active box nil)) box)) (quote ((1 0 0 0 nil 0) (8 0 1 0 nil 0) (3 0 2 0 nil 0) (1 0 3 0 nil 0) (5 0 3 1 nil 0) (2 0 4 0 nil 0) (7 0 5 0 nil 0) (7 0 6 0 nil 0) (8 0 6 1 nil 0) (0 0 7 1 nil 0) (4 1 9 0 nil 0) (4 0 10 0 nil 0))) 1 "omloop 2" nil))) (when (fboundp (quote set-active)) (set-active box nil)) box) (let ((box (om-load-boxcall (quote genfun) "OM+" (quote om+) (quote ((om-load-inputfun (quote input-funbox) "number or list" "ARG1" 0) (om-load-inputfun (quote input-funbox) "number or list" "ARG2" 0))) (om-make-point 168 144) nil nil nil nil 1))) (when (fboundp (quote set-active)) (set-active box nil)) box) (let ((box (om-load-boxout "output" 0 (om-make-point 308 488) (quote ((om-load-inputfun (quote input-funbox) "" "out" nil))) nil nil))) (when (fboundp (quote set-active)) (set-active box nil)) box))) (quote ((3 0 0 1 nil 0) (1 0 0 3 nil 0) (4 0 2 1 nil 0) (1 0 2 3 nil 0) (2 1 3 0 nil 0) (5 0 3 1 nil 0) (2 1 5 0 nil 0) (0 1 7 0 nil 0))) nil 7.03))
